<svg width="34" height="34" viewBox="0 0 34 31" fill="none" xmlns="http://www.w3.org/2000/svg">
<path d="M31.7693 10.6667H27.1333L26.1453 4.76403C25.9462 3.87095 25.509 3.04845 24.8801 2.38385C24.2512 1.71925 23.4541 1.23737 22.5733 0.989363C21.6885 0.704681 20.7667 0.551052 19.8373 0.533363H14.1627C13.2333 0.551052 12.3115 0.704681 11.4267 0.989363C10.5459 1.23737 9.74875 1.71925 9.11984 2.38385C8.49093 3.04845 8.05372 3.87095 7.85465 4.76403L6.86665 10.6667H2.23065C2.03112 10.6655 1.83413 10.7114 1.65573 10.8008C1.47732 10.8901 1.32255 11.0204 1.20402 11.1809C1.08549 11.3414 1.00655 11.5276 0.973644 11.7244C0.940737 11.9212 0.954787 12.123 1.01465 12.3134L5.77732 28.2734C6.01979 29.0444 6.50177 29.718 7.15325 30.1963C7.80472 30.6747 8.59175 30.9329 9.39998 30.9334H24.6C25.4039 30.9275 26.1852 30.6669 26.8316 30.1889C27.478 29.7109 27.9562 29.0403 28.1973 28.2734L32.96 12.3134C33.0192 12.1251 33.0336 11.9255 33.0021 11.7307C32.9705 11.5358 32.8938 11.351 32.7781 11.191C32.6625 11.0311 32.511 10.9004 32.3359 10.8093C32.1607 10.7183 31.9667 10.6694 31.7693 10.6667ZM9.45065 10.6667L10.3627 5.16936C10.4626 4.72052 10.6946 4.31183 11.0286 3.99582C11.3627 3.67982 11.7836 3.47094 12.2373 3.39603C12.8605 3.19843 13.5091 3.0895 14.1627 3.0667H19.8373C20.4985 3.08696 21.1547 3.1959 21.788 3.39603C22.2417 3.47094 22.6626 3.67982 22.9967 3.99582C23.3308 4.31183 23.5627 4.72052 23.6627 5.16936L24.5493 10.6667H9.34932H9.45065Z" fill="#D81650"/>
</svg>
