<svg width="37" height="37" viewBox="0 0 37 37" fill="none" xmlns="http://www.w3.org/2000/svg">
<path d="M26.2084 27.75C24.4971 27.75 23.125 29.1221 23.125 30.8333C23.125 31.6511 23.4499 32.4353 24.0281 33.0136C24.6063 33.5918 25.3906 33.9167 26.2084 33.9167C27.0261 33.9167 27.8104 33.5918 28.3886 33.0136C28.9668 32.4353 29.2917 31.6511 29.2917 30.8333C29.2917 30.0156 28.9668 29.2313 28.3886 28.6531C27.8104 28.0749 27.0261 27.75 26.2084 27.75ZM1.54169 3.08334V6.16667H4.62502L10.175 17.8679L8.07835 21.645C7.8471 22.0767 7.70835 22.5854 7.70835 23.125C7.70835 23.9428 8.0332 24.727 8.61144 25.3052C9.18968 25.8835 9.97394 26.2083 10.7917 26.2083H29.2917V23.125H11.4392C11.337 23.125 11.2389 23.0844 11.1667 23.0121C11.0944 22.9398 11.0538 22.8418 11.0538 22.7396C11.0538 22.6625 11.0692 22.6008 11.1 22.5546L12.4875 20.0417H23.9729C25.1292 20.0417 26.1467 19.3942 26.6709 18.4538L32.19 8.47917C32.2979 8.2325 32.375 7.97042 32.375 7.70834C32.375 7.29946 32.2126 6.90733 31.9235 6.61821C31.6344 6.32909 31.2422 6.16667 30.8334 6.16667H8.0321L6.58294 3.08334M10.7917 27.75C9.08044 27.75 7.70835 29.1221 7.70835 30.8333C7.70835 31.6511 8.0332 32.4353 8.61144 33.0136C9.18968 33.5918 9.97394 33.9167 10.7917 33.9167C11.6094 33.9167 12.3937 33.5918 12.9719 33.0136C13.5502 32.4353 13.875 31.6511 13.875 30.8333C13.875 30.0156 13.5502 29.2313 12.9719 28.6531C12.3937 28.0749 11.6094 27.75 10.7917 27.75Z" fill="#D81650"/>
</svg>
